<?xml version="1.0" encoding="UTF-8" standalone="no"?>
<svg width="91px" height="299px" viewBox="0 0 91 299" version="1.1" xmlns="http://www.w3.org/2000/svg" xmlns:xlink="http://www.w3.org/1999/xlink" xmlns:sketch="http://www.bohemiancoding.com/sketch/ns">
    <!-- Generator: Sketch 3.3.2 (12043) - http://www.bohemiancoding.com/sketch -->
    <title>Line + ballon 1</title>
    <desc>Created with Sketch.</desc>
    <defs></defs>
    <g id="Page-1" stroke="none" stroke-width="1" fill="none" fill-rule="evenodd" sketch:type="MSPage">
        <g id="Artboard-9" sketch:type="MSArtboardGroup" transform="translate(-309.000000, -56.000000)">
            <g id="The-shabang-Copy" sketch:type="MSLayerGroup" transform="translate(128.000000, 18.000000)">
                <g id="Line-+-ballon-1" transform="translate(173.000000, 31.000000)" sketch:type="MSShapeGroup">
                    <path d="M65,123 L96,304" id="Line" stroke="#E3E3E3" stroke-width="2" stroke-linecap="square"></path>
                    <g id="ballon-1" transform="translate(55.500000, 68.500000) rotate(-9.000000) translate(-55.500000, -68.500000) translate(10.000000, 7.000000)">
                        <path d="M46.3498182,114.172431 C46.3498182,114.172431 39.2149514,118.282362 39.2149514,122.005495 C41.2002738,122.392293 51.3199814,122.392293 53.3919611,122.392293 C53.3919607,117.555942 46.3498182,114.172431 46.3498182,114.172431 Z" id="Path-27-Copy" fill="#CF7082"></path>
                        <path d="M46.3561544,0.446309359 C64.7542657,0.446309361 90.5865937,9.05447383 90.5865949,47.919807 C90.586596,86.7851401 57.4665988,112.943072 46.3561561,112.943065 C35.2457134,112.943059 0.722507514,85.3112793 0.722506913,47.9198087 C0.722506312,10.5283382 27.9580431,0.446309358 46.3561544,0.446309359 Z" id="Path-25-Copy" fill="#CF7082"></path>
                        <path d="M67.3659935,15.3266745 C67.3659935,15.3266745 88.8845794,27.339563 80.3313155,66.2427146 C77.8725537,77.4259994 77.1597188,69.1750798 77.1597188,69.1750798 L67.3659935,15.3266745 Z" id="Path-26-Copy" fill="#FEA0AF"></path>
                        <path d="M43.6821931,113.924298 C43.6969355,113.086222 44.3867795,112.418569 45.242687,112.433394 L47.5275468,112.472968 C48.3746414,112.48764 49.0494989,113.173086 49.0346536,114.017005 L49.0346536,114.017005 C49.0199112,114.85508 48.3300672,115.522734 47.4741597,115.507909 L45.1892999,115.468335 C44.3422053,115.453663 43.6673478,114.768217 43.6821931,113.924298 L43.6821931,113.924298 L43.6821931,113.924298 Z" id="Rectangle-5-Copy-2" fill="#E3E3E3"></path>
                    </g>
                </g>
            </g>
        </g>
    </g>
</svg>