<?xml version="1.0" encoding="utf-8"?>
<!-- Generator: Adobe Illustrator 16.0.3, SVG Export Plug-In . SVG Version: 6.00 Build 0)  -->
<!DOCTYPE svg PUBLIC "-//W3C//DTD SVG 1.1//EN" "http://www.w3.org/Graphics/SVG/1.1/DTD/svg11.dtd">
<svg version="1.1" xmlns="http://www.w3.org/2000/svg" xmlns:xlink="http://www.w3.org/1999/xlink" x="0px" y="0px"
	 width="459.208px" height="88.87px" viewBox="0 0 459.208 88.87" enable-background="new 0 0 459.208 88.87" xml:space="preserve">
<g id="Layer_1" display="none">
	<g id="_x35_Ac4qz_1_" display="inline">
		
			<image overflow="visible" width="1600" height="399" id="_x35_Ac4qz_2_" xlink:href="77F700F60846D431.jpg"  transform="matrix(0.272 0 0 0.272 -9.1221 -10.4624)">
		</image>
	</g>
</g>
<g id="cloud_1">
	<path fill="none" stroke="#FFFFFF" stroke-width="2" stroke-miterlimit="10" d="M1,66.348c0-4.787,3.88-8.667,8.667-8.667
		c1.56,0,3.02,0.418,4.285,1.139c1.766-2.74,4.377-4.873,7.47-6.043c0.615-5.154,4.994-9.153,10.314-9.153
		c0.17,0,0.336,0.018,0.505,0.025c-0.298-0.968-0.46-1.996-0.46-3.061c0-5.74,4.654-10.394,10.393-10.394
		c2.011,0,3.881,0.581,5.472,1.569c1.533-2.989,4.465-5.134,7.936-5.572c0-0.03-0.004-0.06-0.004-0.091
		c0-8.097,6.564-14.662,14.661-14.662c7.863,0,14.262,6.195,14.626,13.968c1.511-0.631,3.167-0.982,4.907-0.982
		c7.039,0,12.745,5.706,12.745,12.745c0,0.509-0.038,1.008-0.096,1.502c0.624-0.116,1.265-0.184,1.923-0.184
		c5.173,0,9.462,3.747,10.326,8.673c5.326,1.393,9.284,6.133,9.494,11.844c1.327-0.635,2.807-1.001,4.376-1.001
		c5.611,0,10.161,4.549,10.161,10.161h75.873"/>
</g>
<g id="Layer_3">
	<path fill="none" stroke="#FFFFFF" stroke-width="2" stroke-miterlimit="10" d="M131.573,35.445h43.535
		c0-3.14,2.546-5.686,5.686-5.686c0.714,0,1.396,0.138,2.025,0.378c0.78-2.368,3.006-4.079,5.635-4.079
		c1.166,0,2.25,0.341,3.167,0.921c1.651-4.878,6.168-8.421,11.551-8.635c0.698-9.62,8.704-17.213,18.501-17.213
		c9.026,0,16.542,6.442,18.216,14.979c1.252-0.435,2.591-0.683,3.991-0.683c2.505,0,4.832,0.758,6.768,2.054
		c0.917-1.292,2.418-2.142,4.123-2.142c1.882,0,3.504,1.039,4.376,2.563c2.196-1.697,4.941-2.717,7.93-2.717
		c5.461,0,10.128,3.374,12.05,8.148c0.299-2.858,2.716-5.087,5.653-5.087c3.141,0,5.686,2.546,5.686,5.686
		c0,0.398-0.042,0.786-0.119,1.161c1.791,1.17,3.105,3.002,3.604,5.15c0.377-0.09,0.766-0.149,1.17-0.149
		c2.796,0,5.061,2.266,5.061,5.061h25.141"/>
</g>
<g id="Layer_4">
	<path fill="none" stroke="#FFFFFF" stroke-width="2" stroke-miterlimit="10" d="M429.158,80h-19.705
		c0.167-0.513,0.257-1.062,0.257-1.631c0-2.9-2.35-5.251-5.251-5.251c-0.479,0-0.935,0.085-1.376,0.206
		c0.103-0.624,0.17-1.26,0.17-1.914c0-6.454-5.229-11.687-11.686-11.687c-1.863,0-3.618,0.448-5.182,1.224
		c0.007-0.167,0.025-0.332,0.025-0.501c0-6.871-5.218-12.522-11.911-13.202c-0.234-9.702-8.151-17.5-17.913-17.5
		c-9.903,0-17.937,8.032-17.937,17.938c0,0.316,0.031,0.624,0.047,0.936c-1.847-0.664-3.829-1.045-5.905-1.045
		c-9.649,0-17.477,7.826-17.477,17.478c0,0.599,0.031,1.19,0.09,1.773c-0.752-0.179-1.532-0.284-2.339-0.284
		c-5.568,0-10.083,4.514-10.083,10.083c0,1.221,0.217,2.391,0.614,3.474h-67.439"/>
</g>
<g id="Layer_5">
	<path fill="none" stroke="#FFFFFF" stroke-width="2" stroke-miterlimit="10" d="M90.948,88.87c0-3.36-2.724-6.083-6.083-6.083
		c-1.238,0-2.389,0.372-3.35,1.008c-1.474-2.347-4.079-3.912-7.055-3.912c-0.438,0-0.865,0.044-1.285,0.109
		c0.14-0.571,0.223-1.164,0.223-1.778c0-4.096-3.32-7.417-7.417-7.417c-3.737,0-6.819,2.766-7.333,6.36
		c-0.512-0.069-1.03-0.117-1.56-0.117c-4.498,0-8.388,2.568-10.307,6.314c-1.485-2.288-4.058-3.805-6.99-3.805
		c-4.603,0-8.333,3.731-8.333,8.333"/>
</g>
<g id="Layer_6">
	<path fill="none" stroke="#FFFFFF" stroke-width="2" stroke-miterlimit="10" d="M458.208,31.673c0-4.507-3.581-8.169-8.052-8.319
		c0.196-0.844,0.31-1.718,0.31-2.622c0-6.397-5.187-11.583-11.583-11.583c-0.423,0-0.84,0.026-1.251,0.07
		C436.808,4.55,432.74,1,427.835,1c-5.501,0-9.959,4.458-9.959,9.958c0,0.324,0.019,0.643,0.049,0.959
		c-0.386-0.055-0.776-0.093-1.177-0.093c-4.603,0-8.332,3.729-8.334,8.331c-2.878,0.348-5.297,2.162-6.5,4.674
		c-1.094-0.527-2.314-0.831-3.609-0.831c-4.604,0-8.334,3.731-8.334,8.333"/>
</g>
</svg>
