<?xml version="1.0" encoding="UTF-8" standalone="no"?>
<svg width="371px" height="197px" viewBox="0 0 371 197" version="1.1" xmlns="http://www.w3.org/2000/svg" xmlns:xlink="http://www.w3.org/1999/xlink" xmlns:sketch="http://www.bohemiancoding.com/sketch/ns">
    <!-- Generator: Sketch 3.3.2 (12043) - http://www.bohemiancoding.com/sketch -->
    <title>fighter</title>
    <desc>Created with Sketch.</desc>
    <defs>
        <path id="path-1" d="M0.238493717,188.928152 L378.049416,115.562415 L367.618115,103.43982 L264.57318,105.557946 L251.797927,80.3603471 L252.615559,72.8363352 L325.689794,27.9155146 L285.929968,27.5492398 L260.598348,52.1258722 L263.177163,0.34859768 L210.266611,18.3553289 L199.384584,66.1002875 L160.377162,24.7932404 L141.054005,44.8379899 L90.1431807,97.2081332 L80.5674736,99.9874719 L0.238493717,188.928152 Z"></path>
    </defs>
    <g id="Page-1" stroke="none" stroke-width="1" fill="none" fill-rule="evenodd" sketch:type="MSPage">
        <g id="Artboard-9" sketch:type="MSArtboardGroup" transform="translate(-237.000000, -268.000000)">
            <g id="The-shabang-Copy" sketch:type="MSLayerGroup" transform="translate(128.000000, 18.000000)">
                <g id="fighter" transform="translate(289.500000, 336.000000) rotate(-5.000000) translate(-289.500000, -336.000000) translate(100.000000, 241.000000)">
                    <g id="right-fin-copy-+-Path-9-Copy-+-left-wing-copy-+-right-wing-copy-+-Path-7-Copy-+-Path-12-Copy-+-Path-2-Copy-+-Path-3-Copy-+-Path-4-Copy-+-Path-5-Copy-+-mid-deck-copy-+-Path-11-Copy-Mask" transform="translate(0.005851, 0.635145)">
                        <mask id="mask-2" sketch:name="Mask" fill="white">
                            <use xlink:href="#path-1"></use>
                        </mask>
                        <use id="Mask" sketch:type="MSShapeGroup" xlink:href="#path-1"></use>
                        <path d="M208.729447,76.7674607 L237.867703,22.2500764 L259.183286,14.6153846 L251.175568,85.784282 L208.729447,76.7674607 Z" id="right-fin-copy" fill="#F4F4F4" sketch:type="MSShapeGroup" mask="url(#mask-2)"></path>
                        <path d="M265.980369,108.346539 L160.671401,161.414058 L70.2540548,175.667006 L251.792054,80.3314349 L265.980369,108.346539 Z" id="Path-9-Copy" fill="#E3E3E3" sketch:type="MSShapeGroup" mask="url(#mask-2)"></path>
                        <path d="M142.112132,165.539094 L378.044136,115.569152 L367.613871,103.431468 L257.243443,105.675641 L142.112132,165.539094 Z" id="left-wing-copy" fill="#F4F4F4" sketch:type="MSShapeGroup" mask="url(#mask-2)"></path>
                        <path d="M1.36094216,188.560943 L140.99107,44.8538443 L168.204508,39.3059112 L181.277814,83.8666165 L1.36094216,188.560943 Z" id="right-wing-copy" fill="#ECECEC" sketch:type="MSShapeGroup" mask="url(#mask-2)"></path>
                        <path d="M80.5538775,100.021916 L217.396884,98.7792707 L70.7040009,175.59297 L80.5538775,100.021916 Z" id="Path-7-Copy" fill="#ECECEC" sketch:type="MSShapeGroup" mask="url(#mask-2)"></path>
                        <path d="M119.943115,135.565835 L152.68635,128.768451 L147.397109,135.3559 L146.119837,150.629176 L118.362957,150.629176 L119.943115,135.565835 Z" id="Path-12-Copy" fill="#D8D8D8" sketch:type="MSShapeGroup" mask="url(#mask-2)"></path>
                        <path d="M71.040698,175.528535 L80.5641042,99.9765817 L0.187101741,188.934665 L71.040698,175.528535 Z" id="Path-2-Copy" fill="#F4F4F4" sketch:type="MSShapeGroup" mask="url(#mask-2)"></path>
                        <path d="M80.363665,100.060237 L160.865248,76.4737701 L208.761543,76.7624369 L80.363665,100.060237 Z" id="Path-3-Copy" fill="#F4F4F4" sketch:type="MSShapeGroup" mask="url(#mask-2)"></path>
                        <path d="M80.4989868,100.020517 L208.902378,76.7352399 L217.133121,99.0937863 L80.4989868,100.020517 Z" id="Path-4-Copy" fill="#E3E3E3" sketch:type="MSShapeGroup" mask="url(#mask-2)"></path>
                        <path d="M216.688407,99.0812745 L208.710514,76.7677398 L245.859361,83.4189308 L257.223048,105.675495 L216.688407,99.0812745 Z" id="Path-5-Copy" fill="#ECECEC" sketch:type="MSShapeGroup" mask="url(#mask-2)"></path>
                        <path d="M216.668094,99.0690839 L147.333362,135.394225 L119.926978,135.569223 L185.648491,99.2307692 L216.668094,99.0690839 Z" id="mid-deck-copy" fill="#F4F4F4" sketch:type="MSShapeGroup" mask="url(#mask-2)"></path>
                        <path d="M230.15149,78.0989736 L303.1989,33.2151881 L314.616519,29.5725339 L251.325873,73.7532609 L230.15149,78.0989736 Z" id="Path-11-Copy" fill="#D8D8D8" sketch:type="MSShapeGroup" mask="url(#mask-2)"></path>
                    </g>
                </g>
            </g>
        </g>
    </g>
</svg>